<svg version="1.0" xmlns="http://www.w3.org/2000/svg"
 fill="none" width="64" height="64" viewBox="0 0 1600 1600"
 preserveAspectRatio="xMidYMid meet">

<g transform="translate(0.000000,1600.000000) scale(0.100000,-0.100000)"
fill="currentColor" stroke="none">
<path d="M4633 13690 c-57 -3 -106 -10 -110 -14 -5 -4 -10 -191 -13 -416 l-5
-408 -308 259 c-170 142 -315 259 -324 259 -36 0 -373 -397 -373 -440 0 -4
227 -198 505 -431 l505 -423 0 -3986 -1 -3985 -399 -475 c-220 -261 -400 -482
-400 -491 0 -43 171 -209 320 -310 81 -55 113 -67 135 -49 9 7 89 100 178 207
l162 194 3 -159 c2 -133 5 -162 19 -173 24 -20 542 -20 566 0 15 12 17 62 17
533 l0 520 123 146 c766 913 1750 2087 1751 2089 1 1 121 -253 266 -565 1456
-3123 1518 -3256 1541 -3264 33 -13 164 24 276 77 93 44 223 128 223 144 0 5
22 11 48 14 149 18 450 172 467 239 4 17 -37 115 -143 343 -82 176 -477 1022
-877 1880 -400 858 -736 1577 -746 1597 l-19 38 1484 0 1484 0 398 -335 c220
-184 403 -335 409 -335 28 0 314 331 356 412 l19 37 -63 53 c-34 30 -93 80
-130 111 l-68 57 270 0 c317 0 293 -10 310 130 14 106 14 219 1 334 -17 142
67 126 -658 126 l-627 0 -730 613 c-401 337 -1292 1084 -1980 1661 -687 577
-1730 1452 -2317 1945 l-1068 896 0 655 c0 360 -4 661 -9 669 -15 24 -257 35
-468 21z m425 -838 c9 -7 12 -61 10 -239 l-3 -230 -255 213 c-146 122 -256
222 -258 233 -2 12 4 21 15 24 32 8 478 7 491 -1z m497 -923 c578 -484 1574
-1321 2215 -1858 1741 -1461 2047 -1718 2730 -2290 344 -288 632 -530 640
-537 12 -12 -49 -14 -396 -14 l-410 0 -385 323 c-211 177 -802 674 -1314 1103
-511 429 -1468 1232 -2125 1783 -657 552 -1454 1220 -1771 1486 l-576 484 59
63 c68 73 257 304 265 324 3 8 8 14 12 14 4 0 479 -396 1056 -881z m-687 -154
l202 -169 0 -3416 0 -3415 -254 -303 c-140 -167 -257 -306 -260 -310 -3 -3 -6
1769 -6 3937 l0 3943 58 -49 c32 -26 149 -124 260 -218z m1284 -1077 c2166
-1818 3455 -2899 3775 -3167 188 -157 342 -289 343 -293 0 -5 -531 -8 -1181
-8 -941 0 -1179 3 -1173 13 4 6 88 107 186 224 100 119 178 221 178 232 0 60
-346 358 -423 364 -21 2 -49 -27 -172 -173 -81 -96 -151 -176 -154 -178 -4 -1
-65 122 -136 273 -110 236 -132 276 -153 282 -72 18 -359 -102 -459 -191 -38
-34 -59 -46 -83 -46 -47 0 -203 -55 -294 -103 -91 -49 -176 -120 -176 -149 0
-11 54 -135 120 -276 66 -141 120 -260 120 -264 0 -4 -98 -8 -219 -8 -168 0
-221 -3 -229 -13 -34 -41 -42 -442 -11 -532 l14 -40 303 -5 303 -5 -218 -260
c-120 -143 -454 -541 -742 -885 -288 -344 -532 -634 -542 -645 -19 -19 -19 61
-19 3354 l0 3373 61 -51 c33 -28 475 -398 981 -823z m1274 -2858 l156 -335
-39 -35 c-82 -72 -325 -180 -406 -180 -34 0 -34 0 -95 133 -33 72 -104 224
-156 336 -53 112 -96 208 -96 212 0 5 12 9 26 9 68 0 306 105 396 175 24 18
46 30 50 26 5 -4 78 -157 164 -341z m456 172 c7 -7 17 -12 24 -12 6 0 15 -7
18 -16 3 -8 10 -12 16 -9 6 3 13 -1 16 -9 3 -9 10 -14 14 -11 5 3 11 1 14 -4
4 -5 1 -13 -5 -17 -7 -4 -9 -3 -5 4 4 7 -1 10 -13 7 -12 -2 -19 1 -17 8 1 7 1
9 -1 4 -3 -4 -8 -5 -12 -3 -4 3 -7 -3 -8 -13 -1 -10 5 -18 13 -18 8 0 14 5 14
10 0 5 6 4 13 -2 8 -6 16 -8 20 -5 12 12 48 -9 57 -32 5 -13 14 -24 20 -24 6
0 8 5 4 12 -4 7 -3 8 4 4 6 -4 9 -13 6 -21 -4 -8 -11 -12 -17 -8 -6 3 -7 1 -3
-6 6 -9 11 -9 24 1 13 11 15 10 9 -4 -3 -10 -2 -18 3 -18 6 0 10 5 10 11 0 7
13 -2 29 -19 16 -16 33 -27 37 -24 4 4 4 2 1 -4 -4 -7 0 -15 9 -18 10 -4 14
-14 11 -26 -3 -11 -1 -20 4 -20 5 0 9 5 9 11 0 5 5 7 12 3 13 -8 -17 -34 -35
-30 -7 2 -9 1 -4 -1 4 -3 7 -9 7 -14 0 -6 -4 -8 -8 -5 -4 2 -8 -6 -8 -19 0
-19 3 -22 14 -13 10 9 16 8 22 -3 7 -10 1 -21 -20 -37 -17 -13 -30 -28 -30
-34 0 -18 -94 -113 -108 -110 -7 2 -19 -4 -28 -13 -8 -8 -11 -15 -5 -15 20 0
11 -31 -11 -40 -13 -5 -17 -9 -10 -9 7 -1 10 -6 7 -11 -10 -16 -34 7 -30 28 2
12 -4 17 -19 17 -14 0 -22 -6 -22 -17 0 -12 4 -14 10 -8 18 18 29 10 13 -8
-12 -13 -14 -21 -6 -29 8 -8 8 -17 -1 -33 -17 -31 -47 -59 -56 -52 -4 4 -4 -1
0 -12 6 -18 5 -18 -21 -1 -28 18 -28 18 -10 -2 22 -25 22 -40 0 -22 -11 10
-14 10 -9 2 10 -18 -88 -18 -102 0 -25 29 -31 64 -16 83 14 18 14 18 5 -3 -8
-15 -8 -24 -1 -28 6 -4 8 -11 5 -16 -3 -5 1 -6 9 -3 16 6 23 25 9 23 -19 -3
-23 2 -13 20 14 27 -9 40 -27 16 -7 -11 -14 -14 -14 -7 -1 7 -3 17 -4 22 -1 6
-3 12 -4 15 0 3 -1 8 0 11 0 4 -5 10 -13 15 -10 6 -10 11 0 21 9 9 12 9 12 0
0 -7 5 -12 11 -12 8 0 8 5 -1 15 -7 8 -16 13 -20 10 -4 -2 -13 8 -21 23 -8 15
-20 31 -27 35 -7 5 -10 12 -7 18 4 5 0 9 -7 9 -7 1 -2 7 12 16 22 13 22 14 3
9 -12 -3 -24 -1 -28 5 -3 6 3 10 14 10 24 0 27 13 7 29 -11 9 -16 9 -22 0 -4
-7 -3 -9 4 -5 6 3 14 1 17 -5 5 -7 0 -10 -11 -7 -12 2 -18 11 -16 21 2 10 -3
16 -10 15 -7 -2 -13 5 -13 14 0 10 -6 23 -13 30 -17 17 -15 33 2 19 12 -10 13
-8 9 9 -5 19 -2 20 23 15 26 -5 26 -4 7 4 -28 13 -28 12 3 42 21 19 24 20 18
5 -5 -14 -4 -17 5 -12 7 5 11 17 8 27 -3 11 -1 17 3 14 5 -3 11 4 15 15 3 11
11 20 16 20 5 0 9 6 9 13 0 6 12 23 25 36 20 19 28 21 40 11 12 -10 13 -7 9
16 -3 19 1 32 16 46 18 17 24 16 21 -4 0 -5 3 -8 8 -8 15 0 20 27 8 40 -9 10
-9 12 4 7 9 -3 16 0 16 9 0 7 -5 11 -11 8 -6 -3 -2 2 9 11 11 9 19 20 18 25
-3 12 25 6 39 -8z m-968 -399 c112 -241 155 -342 149 -353 -16 -27 -158 -116
-236 -149 -93 -38 -198 -67 -218 -59 -13 5 -335 678 -327 682 2 1 34 9 72 19
98 25 239 89 321 146 39 27 73 50 76 50 3 1 77 -151 163 -336z m1321 93 c-7
-34 -18 -46 -31 -35 -7 6 -19 7 -25 3 -8 -5 -9 -3 -4 5 4 7 16 11 26 8 10 -3
22 -1 25 4 3 5 2 9 -3 8 -4 -1 -15 -1 -23 0 -12 1 -12 3 -2 9 18 12 40 11 37
-2z m-217 -1131 c811 -1741 1324 -2842 1374 -2947 50 -106 51 -108 32 -129
-64 -71 -340 -199 -429 -199 l-32 0 -488 1048 c-269 576 -683 1463 -921 1972
l-431 925 31 8 c153 41 304 109 391 176 28 21 53 35 56 32 4 -3 191 -402 417
-886z m26 874 c-3 -5 -10 -7 -15 -3 -5 3 -7 10 -3 15 3 5 10 7 15 3 5 -3 7
-10 3 -15z m-77 -75 c-9 -9 -28 6 -21 18 4 6 10 6 17 -1 6 -6 8 -13 4 -17z
m-437 -1077 c239 -512 649 -1393 912 -1957 263 -564 481 -1035 484 -1046 4
-17 -5 -30 -43 -59 -96 -73 -334 -176 -408 -175 -17 0 -56 78 -242 478 -122
262 -524 1125 -893 1917 -370 792 -685 1468 -700 1503 l-29 62 30 0 c73 0 310
103 401 175 24 19 45 34 48 34 3 1 201 -419 440 -932z m-1037 884 c3 -11 2
-22 -1 -26 -13 -13 -10 -33 5 -28 12 5 12 7 1 14 -7 5 -8 9 -2 9 18 0 24 -12
13 -26 -7 -8 -6 -14 2 -20 8 -4 9 -3 5 4 -4 7 -4 12 1 12 15 0 34 -53 22 -64
-7 -8 -8 -6 -4 5 4 10 2 19 -3 23 -5 3 -8 -5 -7 -17 1 -12 7 -22 12 -22 12 0
28 -13 28 -23 0 -4 8 -19 18 -33 10 -16 15 -33 11 -44 -6 -14 -4 -16 7 -10 12
8 12 6 0 -8 -12 -15 -12 -17 3 -11 13 5 23 -8 14 -19 -2 -2 5 -11 14 -21 13
-13 17 -30 15 -66 -3 -37 -1 -47 10 -43 14 6 18 23 5 23 -5 0 -9 7 -9 16 0 12
5 10 18 -7 14 -19 15 -25 4 -31 -14 -9 -14 -43 1 -43 5 0 21 -10 34 -23 l25
-23 -346 2 c-254 1 -346 4 -346 12 0 7 -2 26 -5 42 -3 17 -3 23 0 15 3 -8 11
7 18 34 8 31 9 56 3 70 -8 20 -8 20 -7 -4 2 -41 -1 -60 -11 -60 -4 0 -6 12 -4
28 3 16 1 22 -4 15 -4 -6 -8 58 -7 143 1 105 5 158 13 168 7 8 10 20 6 26 -3
5 -4 14 0 19 3 6 101 10 224 11 210 1 219 0 224 -19z m5109 -18 c-9 -51 -9
-398 1 -451 l7 -42 -1802 2 -1801 3 -89 190 c-49 105 -105 223 -123 263 l-34
72 1924 0 1924 0 -7 -37z m748 22 c-13 -16 -10 -72 4 -67 5 2 13 -2 18 -10 7
-9 8 -8 4 5 -3 10 -1 27 4 38 6 10 7 19 2 19 -4 0 -13 -12 -19 -27 l-11 -28
-1 27 c-1 17 7 32 21 42 27 19 42 21 32 4 -12 -19 -19 -83 -23 -213 -1 -36 -4
-46 -11 -35 -14 22 -12 4 6 -62 16 -55 16 -60 -1 -78 -10 -11 -21 -17 -26 -14
-10 6 -23 -40 -16 -58 3 -7 6 -1 6 15 1 15 6 27 12 27 7 0 18 8 25 18 12 15
13 14 13 -13 0 -16 3 -45 7 -63 l6 -32 -383 1 c-211 0 -379 3 -372 6 8 3 8 11
-3 31 -8 15 -14 34 -13 42 0 10 3 8 9 -5 9 -20 9 -20 9 1 1 11 -3 24 -8 30
-13 13 -18 93 -6 97 7 3 6 8 -1 18 -13 16 -13 147 -1 167 5 7 5 21 2 32 -4 14
2 27 22 45 15 13 22 25 15 25 -7 0 -15 -7 -18 -15 -4 -8 -10 -15 -15 -15 -4 0
-6 7 -4 15 3 8 7 22 10 30 4 12 55 14 361 14 306 0 354 -2 344 -14z m-5650
-439 c9 -12 8 -15 -8 -13 -10 0 -19 7 -19 14 0 17 12 17 27 -1z m163 -344
l109 -234 -20 -21 c-27 -30 -2253 -2686 -2268 -2705 -1 -2 -40 34 -86 80 -83
84 -208 184 -284 229 l-41 24 1024 1220 c563 671 1103 1316 1201 1433 l177
212 40 -2 39 -3 109 -233z m4409 211 c-11 -16 -36 -43 -56 -62 l-35 -34 -71
62 -71 61 126 0 126 0 -19 -27z m-6202 -2843 l0 -80 -47 0 c-81 0 -83 9 -17
89 33 39 60 71 62 71 1 0 2 -36 2 -80z m-820 -40 c0 -5 -5 -10 -11 -10 -5 0
-7 5 -4 10 3 6 8 10 11 10 2 0 4 -4 4 -10z m56 -21 c4 -7 -1 -7 -16 1 -15 8
-20 8 -16 1 7 -10 -12 -16 -41 -12 -7 1 -13 -6 -13 -16 0 -11 3 -14 8 -7 4 6
17 10 30 9 12 -1 22 2 22 5 0 12 52 9 67 -4 8 -6 23 -19 34 -28 10 -10 22 -18
27 -18 4 0 31 -23 60 -50 29 -27 56 -50 60 -52 4 -1 19 -14 35 -29 23 -23 25
-28 13 -39 -17 -13 -17 -69 -1 -67 6 1 9 -4 7 -11 -1 -7 2 -21 8 -32 8 -15 6
-20 -10 -25 -11 -4 -18 -10 -16 -13 2 -4 -2 -16 -10 -27 -8 -10 -14 -13 -14
-6 0 7 -5 9 -11 6 -6 -4 -8 -13 -5 -21 3 -8 4 -14 2 -14 -3 0 -13 -3 -23 -7
-15 -6 -16 -5 -5 9 10 13 10 18 1 24 -7 4 -9 3 -5 -4 3 -6 2 -14 -4 -17 -8 -5
-7 -11 1 -21 8 -10 8 -14 0 -14 -6 0 -10 -4 -9 -8 4 -13 -51 -74 -61 -68 -5 3
-8 -2 -7 -12 0 -9 -9 -21 -21 -27 -13 -5 -23 -13 -23 -18 0 -4 6 -5 13 -1 21
14 -43 -60 -76 -86 -18 -14 -32 -31 -32 -39 0 -8 -7 -16 -15 -19 -12 -4 -13
-2 -3 9 10 10 10 16 0 28 -9 12 -9 13 0 7 9 -5 11 -2 7 7 -3 8 2 17 11 21 9 3
13 2 10 -4 -3 -6 -2 -10 3 -10 22 0 19 26 -3 28 -25 2 -49 -37 -39 -63 6 -16
-1 -18 -48 -17 -18 0 -28 -5 -28 -14 0 -8 -5 -12 -10 -9 -6 4 -8 10 -6 14 3 4
-1 8 -9 8 -8 0 -12 -4 -9 -9 4 -5 -4 -12 -17 -15 -22 -6 -22 -7 -3 -14 18 -7
17 -8 -3 -8 -15 -1 -23 5 -23 15 0 10 -6 14 -14 11 -9 -4 -17 2 -21 14 -4 10
-10 17 -14 14 -5 -2 -19 8 -33 23 -14 15 -38 36 -54 47 -15 11 -35 28 -43 38
-9 9 -22 17 -30 17 -11 0 -10 4 4 14 18 13 17 13 -6 12 -31 -3 -80 21 -76 37
1 6 -3 11 -10 10 -12 -3 -12 21 0 24 12 4 36 30 39 44 4 15 24 41 61 77 15 14
27 32 27 39 0 7 6 13 14 13 8 0 18 5 22 12 4 7 3 8 -4 4 -20 -12 -13 -1 15 25
14 13 22 17 18 9 -12 -20 -14 -50 -3 -44 5 4 7 12 4 20 -3 7 -1 16 5 20 6 3 8
12 5 19 -3 8 4 17 15 20 10 4 17 10 14 15 -3 4 10 22 29 38 19 17 32 34 28 38
-4 5 1 3 10 -4 14 -11 22 -11 45 2 15 8 22 15 16 16 -7 0 -13 5 -13 11 0 5 6
7 13 3 6 -4 8 -3 4 1 -4 5 -14 10 -22 11 -12 2 -13 -2 -4 -18 10 -18 9 -20 -5
-15 -10 4 -15 3 -11 -3 3 -6 2 -10 -3 -10 -6 0 -12 7 -16 15 -3 8 -2 14 2 12
4 -1 7 1 7 4 0 4 8 16 18 27 22 24 57 35 57 19 0 -8 4 -7 9 2 5 7 14 11 19 7
6 -4 16 2 22 13 8 17 6 22 -11 32 -17 9 -20 8 -16 -3 2 -7 9 -12 15 -11 7 2 9
-4 5 -13 -5 -15 -7 -15 -15 0 -5 9 -14 14 -19 11 -5 -4 -7 -10 -5 -14 3 -4 -5
-8 -17 -8 -22 -2 -22 -2 -2 15 11 9 28 29 38 45 9 15 24 27 33 27 8 0 17 7 20
15 5 11 11 12 24 5 11 -6 22 -15 26 -21z m5316 -577 l158 -337 -42 -37 c-101
-89 -406 -213 -435 -176 -21 27 -315 669 -309 675 3 4 38 15 78 25 87 22 253
101 328 156 30 22 57 38 59 36 3 -3 76 -156 163 -342z m-5031 314 c-6 -7 -6
-17 -1 -26 7 -11 10 -11 11 -2 3 27 4 31 12 38 4 4 7 0 7 -8 0 -9 7 -18 15
-22 13 -4 13 -9 3 -25 -11 -17 -14 -18 -34 -4 -25 16 -39 47 -29 63 4 6 11 8
16 4 7 -4 7 -10 0 -18z m19 -66 c0 -5 -4 -10 -10 -10 -5 0 -10 5 -10 10 0 6 5
10 10 10 6 0 10 -4 10 -10z m4503 -481 c182 -391 176 -347 52 -424 -113 -71
-275 -135 -339 -135 -35 0 -13 -41 -255 478 -96 206 -98 212 -74 212 72 0 293
96 396 171 29 21 54 38 57 38 3 0 76 -153 163 -340z m-4902 38 c-7 -7 -14 -8
-21 -1 -6 6 -2 10 12 11 16 2 18 -1 9 -10z m39 3 c0 -6 -7 -13 -15 -16 -8 -4
-13 -10 -10 -14 3 -5 -8 -20 -25 -33 -16 -14 -30 -31 -30 -37 0 -16 -16 -4
-42 32 -12 17 -17 28 -10 24 7 -4 12 -2 12 3 0 6 4 11 10 11 5 0 7 -8 4 -17
-4 -14 -3 -15 4 -5 7 11 10 11 15 -2 4 -9 12 -16 18 -16 8 0 7 5 -2 17 -8 9
-9 14 -3 10 6 -3 11 0 11 8 0 10 -4 11 -11 6 -7 -6 -18 -4 -29 4 -11 7 -14 16
-8 19 5 4 12 2 15 -2 8 -13 69 -7 74 7 5 14 22 15 22 1z"/>
<path d="M4800 12200 c0 -4 20 -10 45 -13 68 -10 185 -58 262 -110 84 -56 231
-206 341 -349 45 -60 85 -108 88 -108 18 0 -222 295 -298 365 -79 73 -191 147
-265 175 -72 27 -173 51 -173 40z"/>
<path d="M6086 11061 c172 -102 335 -230 569 -446 253 -234 429 -385 448 -385
5 0 -26 29 -70 64 -91 74 -153 129 -369 327 -185 169 -266 238 -372 317 -84
62 -278 182 -295 182 -6 0 34 -27 89 -59z"/>
<path d="M7649 9983 c24 -21 144 -117 267 -214 300 -236 443 -359 563 -485 56
-58 101 -101 101 -96 0 17 -217 228 -347 339 -128 108 -566 456 -607 481 -11
8 -1 -3 23 -25z"/>
<path d="M8110 9310 c8 -6 56 -36 107 -68 108 -67 212 -149 378 -297 66 -59
157 -137 203 -173 72 -58 88 -77 119 -140 20 -40 41 -75 45 -78 5 -3 -9 30
-31 74 -30 59 -53 90 -93 123 -29 24 -120 102 -203 174 -270 236 -375 316
-485 369 -30 14 -48 22 -40 16z"/>
<path d="M9600 8254 c0 -37 61 -144 119 -206 31 -34 91 -88 134 -119 80 -60
274 -175 282 -167 2 2 -24 19 -58 37 -249 135 -406 280 -457 423 -11 29 -19
44 -20 32z"/>
<path d="M4745 11370 c13 -65 36 -281 44 -425 l10 -160 -5 169 c-5 174 -26
377 -44 418 -11 23 -11 23 -5 -2z"/>
<path d="M4806 10430 c28 -310 30 -546 9 -1035 -8 -187 -14 -455 -13 -595 l1
-255 8 365 c4 201 12 464 18 585 19 381 9 843 -19 955 -8 29 -9 26 -4 -20z"/>
<path d="M4811 7965 c0 -11 3 -36 9 -55 5 -19 14 -83 19 -141 17 -174 -7 -377
-83 -721 -13 -60 -20 -106 -16 -103 4 3 10 17 12 32 3 16 24 118 46 228 51
248 66 413 52 561 -10 105 -37 241 -39 199z"/>
<path d="M4728 5955 c-4 -106 -15 -231 -27 -304 -22 -125 -23 -181 -3 -74 27
137 42 307 40 429 l-3 129 -7 -180z"/>
<path d="M7855 8010 c-3 -5 -1 -10 4 -10 6 0 11 5 11 10 0 6 -2 10 -4 10 -3 0
-8 -4 -11 -10z"/>
<path d="M8008 7908 c10 -13 10 -17 0 -21 -9 -4 -9 -6 -1 -6 20 -2 24 16 5 30
-15 13 -16 12 -4 -3z"/>
<path d="M8025 7870 c-4 -6 -10 -8 -14 -6 -4 3 -8 -1 -8 -8 0 -17 23 -10 31
10 6 16 0 19 -9 4z"/>
<path d="M7726 7852 c-3 -4 4 -9 15 -9 23 -2 25 3 4 10 -8 4 -16 3 -19 -1z"/>
<path d="M8090 7814 c-9 -10 -9 -14 -1 -14 6 0 11 4 11 10 0 18 27 -1 39 -27
6 -14 14 -23 17 -20 8 7 -24 54 -41 61 -7 2 -19 -2 -25 -10z"/>
<path d="M7665 7790 c-3 -5 -3 -10 0 -10 4 0 -3 -15 -14 -34 -12 -18 -21 -42
-21 -52 0 -22 38 50 45 84 4 23 0 28 -10 12z"/>
<path d="M8093 7793 c-10 -3 -9 -8 3 -20 12 -13 18 -13 27 -3 9 10 9 11 -2 5
-11 -6 -13 -4 -8 8 6 17 2 19 -20 10z"/>
<path d="M7596 7722 c-3 -5 1 -9 9 -9 8 0 15 4 15 9 0 4 -4 8 -9 8 -6 0 -12
-4 -15 -8z"/>
<path d="M7662 7710 c-18 -29 -15 -38 4 -12 9 13 14 25 12 27 -2 2 -9 -5 -16
-15z"/>
<path d="M7589 7663 c0 -5 -2 -18 -5 -31 -2 -13 0 -21 5 -18 8 5 13 56 5 56
-2 0 -4 -3 -5 -7z"/>
<path d="M8170 7640 c-8 -5 -12 -12 -9 -15 4 -3 12 1 19 10 14 17 11 19 -10 5z"/>
<path d="M7656 7583 c-4 -9 -1 -21 5 -27 9 -8 10 -7 4 3 -4 7 -2 16 5 21 8 5
8 10 2 14 -5 3 -13 -2 -16 -11z"/>
<path d="M8091 7593 c-2 -20 16 -24 30 -5 13 15 12 16 -3 4 -13 -10 -17 -10
-21 0 -4 9 -6 9 -6 1z"/>
<path d="M7653 7519 c9 -5 17 -15 17 -21 0 -9 -3 -9 -12 0 -7 7 -16 12 -22 12
-5 0 -1 -6 10 -14 24 -18 43 -3 24 19 -7 8 -18 15 -24 15 -6 0 -3 -5 7 -11z"/>
<path d="M8004 7493 c-2 -20 0 -20 13 -8 18 18 30 19 36 3 3 -7 5 -4 4 7 -1
31 -52 29 -53 -2z"/>
<path d="M7715 7429 c7 -11 35 -12 35 -1 0 4 -9 8 -20 9 -11 1 -18 -2 -15 -8z"/>
<path d="M7727 7390 c3 -11 12 -20 19 -20 11 0 10 5 -3 20 -10 11 -18 20 -19
20 -1 0 0 -9 3 -20z"/>
<path d="M7700 7380 c0 -5 5 -10 10 -10 6 0 10 5 10 10 0 6 -4 10 -10 10 -5 0
-10 -4 -10 -10z"/>
<path d="M7920 7359 c0 -5 -4 -7 -10 -4 -5 3 -10 1 -10 -4 0 -6 5 -11 11 -11
5 0 7 -4 4 -10 -9 -15 -25 -12 -25 4 0 21 -21 31 -31 15 -7 -12 -9 -12 -9 0 0
8 -3 12 -6 8 -3 -3 -3 -11 1 -17 5 -8 11 -8 21 1 16 13 18 2 5 -20 -5 -7 -14
-10 -20 -7 -6 4 -11 3 -11 -2 0 -18 28 -21 35 -4 5 12 8 13 14 4 6 -10 11 -9
21 4 14 16 24 54 15 54 -3 0 -5 -5 -5 -11z"/>
<path d="M7671 6878 c48 -142 103 -341 144 -522 3 -15 8 -26 11 -24 12 13 -99
431 -158 593 -64 174 -62 144 3 -47z"/>
<path d="M7864 6127 c136 -86 205 -181 327 -449 39 -87 74 -157 76 -155 5 6
-126 290 -171 370 -20 37 -62 94 -93 128 -54 57 -132 120 -150 118 -4 0 0 -6
11 -12z"/>
<path d="M8450 4903 c1 -38 30 -117 77 -215 31 -65 58 -116 60 -114 2 1 -21
54 -51 117 -30 63 -59 138 -66 167 -10 45 -21 68 -20 45z"/>
<path d="M8669 4624 c6 -12 68 -100 137 -195 161 -220 225 -318 270 -413 36
-76 53 -100 33 -49 -39 104 -115 223 -323 508 -113 155 -130 177 -117 149z"/>
<path d="M9036 3885 c10 -54 27 -110 30 -100 2 6 -5 37 -16 70 -11 33 -17 47
-14 30z"/>
<path d="M6870 6633 c66 -51 162 -148 227 -228 60 -75 119 -160 397 -583 59
-90 110 -161 113 -158 3 2 -15 33 -40 68 -25 35 -109 162 -187 283 -152 235
-245 365 -335 466 -63 70 -184 179 -200 179 -5 0 6 -12 25 -27z"/>
<path d="M7588 5348 c20 -29 136 -190 257 -358 121 -168 228 -317 237 -330 9
-14 17 -20 17 -15 1 6 -108 161 -242 346 -133 184 -253 352 -267 372 -14 20
-28 37 -32 37 -5 0 9 -24 30 -52z"/>
<path d="M7836 4671 c4 -8 38 -55 76 -104 97 -127 215 -324 384 -642 81 -151
149 -274 151 -271 4 4 -216 423 -290 551 -101 178 -231 372 -297 445 -17 19
-28 29 -24 21z"/>
<path d="M6064 7162 c-8 -13 -8 -20 1 -29 9 -8 12 -4 12 18 0 16 -1 29 -1 29
-1 0 -6 -8 -12 -18z"/>
<path d="M6045 7120 c3 -5 8 -10 11 -10 2 0 4 5 4 10 0 6 -5 10 -11 10 -5 0
-7 -4 -4 -10z"/>
<path d="M6484 7090 c0 -11 6 -22 12 -24 7 -3 10 3 7 15 -7 26 -19 32 -19 9z"/>
<path d="M6052 7063 c1 -10 0 -38 -2 -63 l-3 -45 -7 45 c-6 35 -7 25 -6 -41 1
-48 4 -85 7 -83 3 2 9 34 13 71 4 37 9 83 12 101 4 20 2 32 -5 32 -6 0 -10 -8
-9 -17z"/>
<path d="M6487 7049 c7 -7 15 -10 18 -7 3 3 -2 9 -12 12 -14 6 -15 5 -6 -5z"/>
<path d="M6569 6978 c7 -10 9 -18 4 -18 -5 0 -9 -10 -10 -21 -2 -24 0 -23 15
7 9 18 8 25 -6 35 -15 13 -16 12 -3 -3z"/>
<path d="M6567 6897 c-6 -16 30 -20 39 -4 4 7 4 9 -1 5 -4 -4 -14 -3 -20 2 -9
7 -14 7 -18 -3z"/>
<path d="M6065 6768 c-9 -32 -11 -68 -4 -68 10 0 10 0 12 48 2 33 -1 41 -8 20z"/>
<path d="M10050 7049 c-346 -11 -1243 -54 -1295 -63 -53 -9 93 -4 420 13 422
23 839 40 1270 50 l310 8 -230 0 c-126 0 -340 -4 -475 -8z"/>
<path d="M10580 6874 c-148 -14 -449 -68 -438 -80 3 -2 56 7 119 20 63 14 159
30 214 37 107 14 465 18 680 8 83 -5 110 -4 75 2 -61 9 -578 19 -650 13z"/>
<path d="M8285 6831 c-11 -5 20 -6 70 -3 50 2 92 6 94 8 9 8 -145 2 -164 -5z"/>
<path d="M12325 7030 c0 -54 4 -102 8 -107 5 -4 6 3 2 17 -3 14 -2 43 4 65 l9
40 2 -35 c1 -20 4 -27 7 -17 3 10 2 30 -2 45 -5 21 -8 23 -16 11 -7 -10 -8 -5
-4 18 4 18 3 39 -2 47 -5 9 -8 -25 -8 -84z"/>
<path d="M11641 7115 c1 -19 18 -51 18 -35 0 8 -4 22 -9 30 -5 8 -9 11 -9 5z"/>
<path d="M12361 7074 c0 -11 3 -14 6 -6 3 7 2 16 -1 19 -3 4 -6 -2 -5 -13z"/>
<path d="M11642 7030 c0 -14 4 -36 8 -50 6 -20 8 -21 8 -5 0 11 -4 34 -8 50
-7 27 -8 27 -8 5z"/>
<path d="M11673 6950 c0 -30 2 -43 4 -27 2 15 2 39 0 55 -2 15 -4 2 -4 -28z"/>
<path d="M11632 6940 c0 -14 2 -19 5 -12 2 6 2 18 0 25 -3 6 -5 1 -5 -13z"/>
<path d="M11645 6874 c-5 -44 -4 -69 4 -77 6 -6 11 -25 12 -41 1 -30 1 -30 8
-6 5 17 3 31 -7 42 -11 13 -13 32 -7 83 3 36 4 65 2 65 -3 0 -9 -30 -12 -66z"/>
<path d="M12344 6864 c-4 -14 -2 -35 3 -47 8 -18 10 -13 9 25 -1 27 -2 48 -3
48 -2 0 -6 -12 -9 -26z"/>
<path d="M12320 6824 c0 -19 4 -33 8 -30 8 5 4 66 -4 66 -2 0 -4 -16 -4 -36z"/>
<path d="M12360 6848 c0 -9 5 -20 10 -23 13 -8 13 5 0 25 -8 13 -10 13 -10 -2z"/>
<path d="M12351 6744 c0 -11 3 -14 6 -6 3 7 2 16 -1 19 -3 4 -6 -2 -5 -13z"/>
<path d="M6440 6039 c-111 -192 -251 -391 -378 -537 -35 -40 -62 -75 -59 -78
5 -6 121 131 204 241 104 137 301 450 290 461 -2 3 -28 -36 -57 -87z"/>
<path d="M5700 5226 c-22 -58 -84 -140 -195 -256 -116 -123 -202 -226 -193
-235 3 -3 20 16 38 43 19 26 77 92 130 147 54 55 118 126 144 158 48 60 101
155 92 164 -3 3 -10 -6 -16 -21z"/>
<path d="M5370 4564 c-36 -42 -204 -214 -375 -382 -170 -168 -301 -300 -290
-294 11 6 155 145 321 309 288 285 436 443 417 443 -5 0 -38 -34 -73 -76z"/>
<path d="M4324 3656 c0 -13 4 -22 9 -19 11 6 9 -11 -3 -23 -6 -6 -3 -10 9 -10
13 0 17 5 13 16 -4 11 0 10 17 -4 19 -17 21 -17 15 -3 -5 13 -2 16 9 11 10 -3
13 -12 9 -22 -5 -14 -4 -15 10 -2 14 14 14 16 -5 26 -12 7 -28 9 -36 6 -11 -4
-13 -1 -8 13 7 15 5 16 -9 4 -14 -11 -15 -10 -12 6 1 10 -2 20 -8 22 -7 2 -11
-6 -10 -21z"/>
<path d="M4411 3583 c-7 -8 -11 -16 -8 -19 2 -2 10 2 17 11 17 20 9 27 -9 8z"/>
<path d="M4448 3590 c17 -20 15 -30 -5 -23 -16 6 -16 5 -4 -11 13 -16 12 -17
-15 -11 -20 5 -25 4 -15 -3 10 -7 10 -11 1 -14 -7 -2 3 -4 23 -4 20 0 32 3 26
7 -7 4 -5 11 5 21 14 14 13 18 -7 34 -12 10 -16 12 -9 4z"/>
<path d="M4480 3550 c-11 -7 -11 -10 -2 -10 7 0 11 -4 8 -8 -3 -5 1 -9 9 -9 8
0 15 4 15 9 0 4 -5 8 -11 8 -5 0 -7 5 -4 10 8 12 4 12 -15 0z"/>
<path d="M4063 3488 c3 -10 2 -20 -3 -23 -6 -4 -10 -1 -10 5 0 6 -4 9 -10 5
-14 -9 0 -34 19 -32 18 1 23 39 7 54 -5 5 -7 1 -3 -9z"/>
<path d="M4489 3343 c-13 -16 -12 -17 4 -4 9 7 17 15 17 17 0 8 -8 3 -21 -13z"/>
<path d="M4566 3351 c-3 -5 -14 -7 -24 -4 -10 2 -27 -7 -42 -23 -14 -15 -19
-24 -11 -19 7 4 16 3 20 -2 3 -6 21 5 40 24 19 18 31 33 28 33 -3 0 -8 -4 -11
-9z m-36 -26 c-7 -9 -15 -13 -17 -11 -7 7 7 26 19 26 6 0 6 -6 -2 -15z"/>
<path d="M3906 3295 c4 -8 8 -15 10 -15 2 0 4 7 4 15 0 8 -4 15 -10 15 -5 0
-7 -7 -4 -15z"/>
<path d="M3877 3286 c-4 -10 -1 -13 8 -9 8 3 12 9 9 14 -7 12 -11 11 -17 -5z"/>
<path d="M3857 3253 c-4 -3 -7 -11 -7 -17 0 -6 5 -5 12 2 6 6 9 14 7 17 -3 3
-9 2 -12 -2z"/>
<path d="M3880 3253 c0 -7 4 -14 10 -18 5 -3 7 -13 4 -23 -5 -14 -4 -14 6 2
10 14 9 21 -4 34 -9 10 -16 12 -16 5z"/>
<path d="M4420 3189 c0 -5 -5 -7 -12 -3 -7 4 -8 3 -4 -4 10 -16 31 -15 46 3
10 13 9 15 -9 15 -11 0 -21 -5 -21 -11z"/>
<path d="M3803 3174 c9 -11 15 -23 12 -26 -3 -3 1 -8 10 -11 28 -11 15 17 -20
43 -19 14 -20 14 -2 -6z"/>
<path d="M3936 3108 c5 -8 2 -9 -9 -5 -9 3 -19 3 -21 -2 -7 -11 43 -53 54 -46
6 4 10 -1 10 -9 0 -8 4 -18 10 -21 5 -3 8 1 5 9 -3 9 -7 24 -11 33 -3 12 -7
14 -12 6 -5 -8 -12 -8 -25 2 -18 13 -17 14 2 20 21 6 20 25 0 25 -6 0 -7 -5
-3 -12z"/>
<path d="M3984 3099 c-3 -6 -2 -15 3 -20 5 -5 9 -1 9 11 0 23 -2 24 -12 9z"/>
<path d="M4345 3079 c-5 -15 -9 -18 -15 -9 -5 7 -7 2 -7 -14 l0 -27 15 23 c9
13 20 26 25 29 5 4 5 9 -1 13 -6 3 -14 -3 -17 -15z"/>
<path d="M4003 3027 c-3 -6 -1 -7 5 -3 7 4 12 2 12 -3 0 -6 5 -11 11 -11 5 0
7 5 4 10 -3 6 -2 10 4 10 12 0 25 -19 18 -26 -3 -3 -14 -6 -25 -7 -11 0 -18
-5 -15 -9 2 -5 13 -6 24 -3 15 5 19 1 19 -17 0 -18 2 -20 10 -8 5 8 5 19 0 25
-5 6 -5 17 0 25 6 8 10 17 10 20 0 10 -71 6 -77 -3z"/>
<path d="M4086 2949 c3 -5 12 -9 21 -9 19 0 9 13 -12 16 -8 1 -13 -2 -9 -7z"/>
<path d="M4193 2895 c0 -11 4 -12 14 -4 7 6 13 13 13 15 0 2 -6 4 -13 4 -8 0
-14 -7 -14 -15z"/>
<path d="M4150 2859 c0 -5 5 -7 10 -4 6 3 10 8 10 11 0 2 -4 4 -10 4 -5 0 -10
-5 -10 -11z"/>
</g>
</svg>
