<svg version="1.0" xmlns="http://www.w3.org/2000/svg"
 width="64" height="64" viewBox="0 0 1600 1600"
 preserveAspectRatio="xMidYMid meet">

<g transform="translate(0.000000,1600.000000) scale(0.100000,-0.100000)"
fill="currentColor" stroke="none">
<path d="M6442 13331 c-122 -49 -308 -168 -347 -224 -23 -32 -19 -53 23 -126
21 -36 243 -419 492 -851 249 -432 586 -1014 748 -1295 162 -280 295 -514 295
-520 0 -5 -126 -228 -280 -495 -154 -267 -441 -764 -638 -1105 -197 -341 -610
-1056 -918 -1590 -308 -533 -743 -1287 -967 -1675 -224 -388 -577 -1000 -785
-1360 -725 -1255 -666 -1148 -650 -1180 45 -88 339 -261 448 -264 l50 -1 289
500 c395 684 952 1648 2056 3560 124 215 273 473 332 575 59 102 320 554 580
1005 777 1346 820 1420 830 1420 10 0 -5 27 1165 -2000 1555 -2694 2199 -3810
2633 -4560 l289 -500 44 1 c109 2 408 175 454 263 17 33 79 -80 -650 1181
-208 360 -469 813 -580 1005 -111 193 -363 629 -560 970 -197 341 -541 937
-765 1325 -651 1128 -1102 1909 -1403 2430 -154 267 -280 490 -280 495 0 6
133 240 295 520 162 281 499 863 748 1295 249 432 471 815 492 851 21 36 38
76 38 88 0 71 -352 290 -467 291 -40 0 -25 22 -259 -385 -849 -1476 -1190
-2064 -1194 -2064 -3 0 -225 383 -495 851 -621 1078 -892 1547 -911 1576 -20
30 -61 28 -152 -7z m2783 -761 c109 -54 224 -135 250 -174 17 -25 15 -29 -152
-318 -93 -161 -355 -616 -583 -1010 -228 -395 -417 -714 -421 -710 -8 7 -299
512 -299 517 0 2 71 126 158 276 88 151 313 542 502 869 188 327 347 600 352
606 14 19 82 -1 193 -56z m-1940 -490 c164 -283 398 -688 520 -900 249 -430
1059 -1835 2240 -3880 1260 -2182 1593 -2760 1833 -3175 123 -214 237 -411
253 -438 16 -26 29 -53 29 -60 0 -51 -282 -228 -408 -256 l-42 -9 -42 72 c-23
39 -80 139 -128 221 -48 83 -291 503 -540 935 -249 432 -544 943 -655 1135
-111 193 -480 832 -820 1420 -340 589 -684 1185 -765 1325 -81 140 -390 676
-687 1190 -297 514 -710 1230 -918 1590 -208 360 -434 751 -502 869 -68 118
-122 215 -121 216 2 0 29 9 62 19 110 33 290 141 360 215 16 17 31 30 32 28 1
-1 136 -234 299 -517z m549 -2068 c80 -140 146 -255 146 -257 0 -3 -99 -175
-512 -890 -124 -214 -410 -709 -635 -1100 -225 -390 -580 -1005 -788 -1365
-688 -1191 -1218 -2109 -1476 -2557 l-254 -441 -40 38 c-81 76 -265 183 -365
211 -25 7 -47 14 -48 15 -2 1 14 33 36 71 69 120 437 757 859 1488 1047 1813
2005 3473 2203 3815 119 206 328 569 466 807 137 238 252 429 255 425 4 -4 72
-121 153 -260z"/>
<path d="M8740 11690 c-138 -276 -249 -504 -247 -506 2 -3 118 221 257 496
138 276 249 504 246 507 -2 3 -118 -221 -256 -497z"/>
<path d="M7040 11794 c325 -333 512 -594 1115 -1547 75 -120 139 -216 141
-214 3 2 -48 87 -112 188 -64 101 -175 276 -247 389 -263 416 -482 725 -678
960 -117 140 -266 298 -322 342 -23 17 23 -35 103 -118z"/>
<path d="M8333 9715 c16 -32 147 -237 147 -229 0 11 -104 182 -131 214 -11 14
-19 21 -16 15z"/>
<path d="M9000 8595 c0 -20 245 -417 413 -670 166 -250 501 -734 505 -731 2 3
-79 125 -181 273 -262 380 -497 739 -622 948 -116 194 -115 192 -115 180z"/>
<path d="M9730 7072 c0 -5 73 -90 162 -188 88 -98 193 -218 233 -265 164 -196
293 -415 359 -608 27 -80 52 -129 107 -210 40 -58 84 -123 97 -143 14 -21 28
-36 30 -33 3 2 -28 51 -68 107 -95 135 -126 190 -156 284 -34 102 -129 291
-200 395 -80 119 -187 250 -349 429 -77 86 -157 174 -177 198 -21 23 -38 38
-38 34z"/>
<path d="M10980 5025 c0 -28 135 -247 275 -445 49 -69 127 -179 173 -245 46
-66 89 -124 95 -130 24 -24 -36 68 -161 242 -163 228 -263 378 -331 498 -28
49 -51 85 -51 80z"/>
<path d="M6951 8602 c-255 -406 -350 -561 -414 -672 -69 -119 -207 -390 -207
-405 0 -5 42 71 93 170 105 203 221 399 442 750 216 342 248 395 244 400 -2 2
-74 -108 -158 -243z"/>
<path d="M6057 6708 c-112 -183 -183 -293 -365 -563 -256 -381 -399 -605 -486
-758 -69 -122 -159 -297 -152 -297 2 0 35 57 72 128 112 212 246 429 510 822
305 455 454 690 440 690 -3 0 -12 -10 -19 -22z"/>
<path d="M4524 4438 c-142 -206 -230 -351 -289 -473 -44 -92 -89 -214 -82
-221 2 -3 17 30 32 73 58 164 150 327 349 617 64 93 115 171 112 173 -2 2 -57
-74 -122 -169z"/>
</g>
</svg>
