<?xml version="1.0" encoding="UTF-8" standalone="no"?>
<!-- Uploaded to: SVG Repo, www.svgrepo.com, Generator: SVG Repo Mixer Tools -->

<svg
   fill="currentcolor"
   height="30"
   width="30"
   version="1.1"
   id="Layer_1"
   viewBox="0 0 511.957 511.957"
   xml:space="preserve"
   sodipodi:docname="rope_white.svg"
   inkscape:version="1.1.2 (0a00cf5339, 2022-02-04)"
   xmlns:inkscape="http://www.inkscape.org/namespaces/inkscape"
   xmlns:sodipodi="http://sodipodi.sourceforge.net/DTD/sodipodi-0.dtd"
   xmlns="http://www.w3.org/2000/svg"
   xmlns:svg="http://www.w3.org/2000/svg"><defs
   id="defs86" /><sodipodi:namedview
   id="namedview84"
   pagecolor="#ffffff"
   bordercolor="#666666"
   borderopacity="1.0"
   inkscape:pageshadow="2"
   inkscape:pageopacity="0.0"
   inkscape:pagecheckerboard="0"
   showgrid="false"
   inkscape:zoom="28.133333"
   inkscape:cx="15.693128"
   inkscape:cy="17.292654"
   inkscape:window-width="1842"
   inkscape:window-height="1016"
   inkscape:window-x="78"
   inkscape:window-y="27"
   inkscape:window-maximized="1"
   inkscape:current-layer="g77" />
<g
   id="g81"
   transform="matrix(1.0014426,0,0,1.0018654,0,-4.6632636e-5)"
   style="fill:#000000">
	<g
   id="g79"
   style="fill:#000000">
		<g
   id="g77"
   style="fill:#000000">
			
			
			
			
			
			
			
			
			
			<g
   id="g965"
   style="fill:#cccccc"><path
     d="m 161.34,278.955 c -21.06,15.044 -41.992,23.748 -60.459,31.437 -17.442,7.253 -32.495,13.517 -42.274,23.296 -32.998,32.998 -32.998,86.69 0,119.68 16.503,16.504 38.178,24.755 59.853,24.755 21.675,0 43.349,-8.252 59.844,-24.755 9.771,-9.762 16.034,-24.823 23.296,-42.266 7.68,-18.466 16.393,-39.39 31.428,-60.45 2.739,-3.831 8.7151,-17.06146 4.8841,-19.80946 -3.831,-2.731 -16.0201,6.06246 -18.7681,9.89346 -16.171,22.63 -25.668,45.466 -33.306,63.812 -6.554,15.761 -12.22,29.38 -19.601,36.753 -26.342,26.334 -69.214,26.342 -95.565,0 -26.342,-26.334 -26.342,-69.205 0,-95.548 7.381,-7.39 21,-13.047 36.77,-19.61 18.347,-7.629 41.182,-17.126 63.812,-33.297 3.84,-2.739 14.26912,-18.62278 11.53012,-22.45378 -2.737,-3.839 -17.61312,5.82278 -21.44412,8.56278 z"
     id="path226"
     style="fill:#cccccc"
     sodipodi:nodetypes="ccscsccccccccccccc" /><path
     d="m 130.185,351.352 c 12.331,-4.48 25.079,-9.114 35.26,-16.777 3.763,-2.833 15.64692,-23.94391 12.81392,-27.70691 -2.825,-3.755 -19.30792,11.22891 -23.07992,14.07091 -8.141,6.127 -19.166,10.129 -30.831,14.37 -15.078,5.478 -30.677,11.153 -41.813,22.289 -9.6,9.6 -14.891,22.357 -14.891,35.934 0,13.568 5.291,26.325 14.891,35.925 9.591,9.6 22.349,14.882 35.925,14.882 13.576,0 26.334,-5.282 35.925,-14.882 9.779,-9.771 16.051,-24.841 23.305,-42.291 7.689,-18.458 16.384,-39.381 31.42,-60.433 2.739,-3.831 11.78175,-18.64393 7.94175,-21.38293 -3.831,-2.731 -19.07775,7.62693 -21.82575,11.46693 -16.162,22.622 -25.66,45.449 -33.289,63.795 -6.562,15.77 -12.228,29.389 -19.618,36.779 -12.749,12.749 -34.97,12.749 -47.718,0 -13.158,-13.158 -13.158,-34.569 0,-47.727 8.456,-8.457 21.632,-13.244 35.584,-18.312 z"
     id="path223"
     style="fill:#cccccc"
     sodipodi:nodetypes="cccccsscsccccccsccc" /><path
     d="M 291.908,351.625 160.367,220.083 c -3.337,-3.337 -8.738,-3.337 -12.066,0 -3.336,3.328 -3.336,8.73 0,12.066 L 280.03,363.87 c 0.512,0.486 50.748,48.725 27.861,102.127 -1.86,4.335 0.154,9.353 4.48,11.204 1.092,0.469 2.236,0.691 3.362,0.691 3.311,0 6.46,-1.937 7.842,-5.171 27.64,-64.495 -29.422,-119.006 -31.667,-121.096 z"
     id="path220"
     style="fill:#cccccc" /><path
     d="m 261.12451,352.03012 c -3.823,-2.748 -15.31351,8.78488 -18.06151,12.62488 -15.292,21.402 -22.989,41.079 -29.781,58.445 -6.545,16.751 -12.211,31.206 -23.125,42.129 -39.543,39.526 -103.851,39.526 -143.394,0 -19.149,-19.149 -29.696,-44.612 -29.696,-71.697 0,-27.085 10.547,-52.548 29.696,-71.697 10.923,-10.923 25.387,-16.58 42.138,-23.134 17.357,-6.784 37.035,-14.481 58.436,-29.764 3.831,-2.748 17.74244,-16.35911 15.00344,-20.19011 -2.739,-3.84 -21.09644,3.56711 -24.92744,6.29811 -19.669,14.054 -38.298,21.333 -54.724,27.767 C 64.914,289.758 48.146,296.32 34.698,309.769 12.322,332.134 0,361.882 0,393.532 c 0,31.642 12.322,61.389 34.697,83.763 23.091,23.091 53.427,34.637 83.763,34.637 30.328,0 60.672,-11.546 83.763,-34.637 13.44,-13.44 20.002,-30.217 26.948,-47.974 6.434,-16.444 13.722,-35.072 27.776,-54.75 2.748,-3.84 8.00951,-19.80188 4.17751,-22.54088 z"
     id="path217"
     style="fill:#cccccc"
     sodipodi:nodetypes="cccccssccccccscssccc" /><path
     d="m 303.761,339.763 c 1.664,1.673 3.849,2.5 6.033,2.5 2.185,0 4.361,-0.828 6.033,-2.5 3.328,-3.328 3.328,-8.73 0,-12.066 L 184.286,196.156 c -3.337,-3.328 -8.738,-3.328 -12.066,0 -3.336,3.337 -3.336,8.738 0,12.066 z"
     id="path214"
     style="fill:#cccccc" /><path
     d="m 345.677,234.65 c 1.715,0 3.447,-0.521 4.949,-1.596 21.06,-15.044 41.992,-23.748 60.45,-31.428 17.442,-7.262 32.495,-13.517 42.274,-23.296 32.99,-32.998 32.99,-86.69 0,-119.689 -15.991,-15.991 -37.239,-24.798 -59.853,-24.798 -22.605,0 -43.853,8.806 -59.836,24.798 -9.771,9.771 -16.043,24.832 -23.296,42.266 -7.688,18.466 -16.401,39.39 -31.437,60.45 -2.739,3.831 -11.84717,15.80216 -8.01617,18.54116 3.831,2.748 19.16017,-4.78516 21.89917,-8.62516 16.171,-22.622 25.668,-45.457 33.306,-63.804 6.562,-15.77 12.228,-29.38 19.61,-36.762 12.757,-12.766 29.722,-19.797 47.77,-19.797 18.057,0 35.021,7.031 47.787,19.797 26.342,26.342 26.342,69.214 0,95.556 -7.381,7.381 -21.001,13.047 -36.762,19.601 -18.347,7.637 -41.182,17.135 -63.812,33.306 -3.84,2.739 -19.64328,11.53034 -16.90428,15.37034 1.673,2.33 19.20028,0.10966 21.87128,0.10966 z"
     id="path211"
     style="fill:#cccccc"
     sodipodi:nodetypes="sccccscccccccssscccs" /><path
     d="M 477.261,34.722 C 454.895,12.348 425.139,0.025 393.498,0.025 c -31.641,0 -61.389,12.322 -83.763,34.697 -13.432,13.44 -19.994,30.208 -26.94,47.966 -6.426,16.435 -13.722,35.072 -27.776,54.758 -2.748,3.831 -11.64278,17.12246 -7.81078,19.86146 3.831,2.756 18.94678,-6.11446 21.69478,-9.94646 15.3,-21.41 22.989,-41.097 29.79,-58.462 6.537,-16.742 12.203,-31.198 23.108,-42.112 19.149,-19.149 44.612,-29.696 71.697,-29.696 27.085,0 52.54,10.547 71.697,29.696 19.149,19.149 29.696,44.612 29.696,71.697 0,27.085 -10.547,52.548 -29.696,71.697 -10.923,10.914 -25.378,16.572 -42.129,23.125 -17.357,6.793 -37.043,14.49 -58.445,29.773 -3.831,2.739 -18.16197,14.24767 -15.42297,18.07867 1.664,2.33 17.72697,-2.59867 20.39797,-2.59867 1.715,0 3.447,-0.521 4.949,-1.587 19.669,-14.054 38.306,-21.342 54.741,-27.776 17.758,-6.946 34.534,-13.508 47.974,-26.948 22.374,-22.374 34.697,-52.122 34.697,-83.763 0,-31.641 -12.322,-61.388 -34.696,-83.763 z"
     id="path208"
     style="fill:#cccccc"
     sodipodi:nodetypes="cscccccccscsccccsccssc" /><path
     d="m 232.115,148.326 c -3.337,-3.336 -8.73,-3.336 -12.066,0 -3.328,3.337 -3.328,8.73 0,12.066 L 351.59,291.934 c 1.664,1.664 3.849,2.5 6.033,2.5 2.185,0 4.369,-0.836 6.033,-2.5 3.337,-3.336 3.337,-8.73 0,-12.066 z"
     id="path205"
     style="fill:#cccccc" /><path
     d="m 208.196,172.245 c -3.328,-3.336 -8.73,-3.336 -12.066,0 -3.328,3.328 -3.328,8.73 0,12.066 l 131.55,131.541 c 1.672,1.673 3.857,2.5 6.033,2.5 2.185,0 4.369,-0.828 6.042,-2.5 3.328,-3.328 3.328,-8.73 0,-12.066 z"
     id="path202"
     style="fill:#cccccc;stroke:none" /><path
     d="m 381.781,160.666 c -12.331,4.48 -25.088,9.114 -35.268,16.777 -3.763,2.833 -16.58473,21.80207 -13.75173,25.56607 2.833,3.772 20.27173,-9.08807 24.01773,-11.92907 8.141,-6.127 19.166,-10.129 30.831,-14.37 15.078,-5.478 30.686,-11.153 41.822,-22.289 9.6,-9.6 14.882,-22.366 14.882,-35.934 0,-13.568 -5.282,-26.334 -14.882,-35.934 -19.823,-19.814 -52.045,-19.797 -71.859,0 -9.771,9.771 -16.043,24.841 -23.287,42.274 -7.689,18.466 -16.393,39.398 -31.437,60.459 -2.739,3.831 -10.67524,14.80832 -6.83524,17.54832 1.493,1.075 12.05724,-4.05632 13.77224,-4.05632 2.662,0 5.282,-1.246 6.946,-3.575 16.171,-22.63 25.668,-45.466 33.306,-63.812 6.562,-15.77 12.22,-29.38 19.601,-36.77 13.141,-13.15 34.569,-13.158 47.727,0 6.374,6.383 9.882,14.857 9.882,23.868 0,9.011 -3.507,17.493 -9.882,23.868 -8.457,8.453 -21.633,13.24 -35.585,18.309 z"
     id="path199"
     style="fill:#cccccc"
     sodipodi:nodetypes="sccccsscccccsccccscs" /></g>
		</g>
	</g>
</g>
</svg>
