<svg version="1.0" xmlns="http://www.w3.org/2000/svg"
 fill="none" width="64" height="64" viewBox="0 0 1600.000000 1600.000000"
 preserveAspectRatio="xMidYMid meet">

<g transform="translate(0.000000,1600.000000) scale(0.100000,-0.100000)"
fill="currentColor" stroke="none">
<path d="M7850 13386 c-58 -16 -100 -38 -125 -66 -20 -22 -20 -40 -25 -976
l-5 -953 -330 571 c-181 315 -430 745 -552 957 -122 211 -229 389 -238 394
-36 20 -211 -50 -336 -133 -84 -56 -159 -129 -159 -155 0 -11 147 -275 326
-585 180 -311 504 -873 722 -1250 217 -377 425 -737 463 -802 l67 -116 -82
-144 c-46 -78 -276 -478 -513 -888 -831 -1440 -1110 -1922 -1556 -2695 -248
-429 -608 -1052 -800 -1385 -192 -333 -563 -976 -825 -1430 -262 -453 -475
-833 -475 -845 1 -11 26 -43 57 -71 140 -132 413 -253 454 -201 5 6 287 494
627 1082 340 589 684 1185 765 1325 310 536 571 989 970 1680 406 704 726
1258 1005 1740 78 135 202 350 276 478 l134 233 5 -2771 5 -2772 37 -33 c53
-49 130 -69 258 -69 128 0 205 20 258 69 l37 33 5 2772 5 2771 337 -583 c185
-321 435 -754 556 -963 314 -545 1007 -1746 1570 -2720 1160 -2011 1305 -2261
1314 -2273 28 -34 161 7 307 94 93 55 196 143 204 174 3 13 -38 94 -132 257
-76 131 -425 735 -776 1343 -351 608 -704 1220 -785 1360 -81 140 -425 737
-765 1325 -340 589 -727 1259 -860 1490 -134 231 -398 689 -588 1018 l-346
599 68 116 c38 64 246 425 463 802 218 377 542 939 722 1250 179 310 326 574
326 585 0 26 -75 99 -159 155 -125 83 -300 153 -336 133 -9 -5 -116 -183 -238
-394 -122 -212 -370 -642 -552 -957 l-330 -571 -5 953 c-5 936 -5 954 -25 976
-48 53 -144 80 -280 79 -55 0 -120 -6 -145 -13z m-568 -1343 c174 -302 475
-822 668 -1158 194 -335 453 -783 575 -995 397 -688 1213 -2102 1549 -2683
112 -194 397 -687 633 -1097 237 -410 656 -1136 932 -1614 276 -478 500 -870
499 -871 -2 -1 -37 -14 -79 -29 -112 -40 -258 -127 -344 -207 l-30 -28 -117
202 c-228 395 -524 907 -1153 1997 -351 608 -704 1220 -785 1360 -81 140 -425
737 -765 1325 -340 589 -684 1185 -765 1325 -160 277 -1362 2359 -1505 2607
l-87 152 18 25 c56 77 332 233 414 235 24 1 53 -46 342 -546z m1943 483 c115
-58 217 -128 249 -171 l18 -26 -139 -242 c-856 -1487 -1027 -1778 -1038 -1765
-6 7 -76 125 -154 261 l-143 248 509 880 508 881 40 -5 c22 -3 89 -31 150 -61z
m-1370 -92 c105 -29 289 -14 373 30 l32 17 0 -583 0 -583 -127 -222 c-71 -123
-130 -223 -133 -223 -3 0 -62 100 -133 223 l-127 222 0 583 0 583 33 -17 c17
-10 55 -23 82 -30z m-16 -2476 l143 -248 -115 -197 c-63 -109 -300 -520 -527
-913 -385 -668 -610 -1057 -970 -1680 -81 -140 -434 -752 -785 -1360 -629
-1090 -925 -1602 -1153 -1997 l-117 -202 -30 28 c-86 80 -232 167 -344 207
-42 15 -77 28 -79 29 -1 1 223 393 499 871 276 478 694 1202 929 1609 235 407
486 841 557 965 72 124 325 563 563 975 238 413 532 921 653 1130 120 209 307
533 415 721 162 280 199 338 208 325 6 -9 75 -127 153 -263z m294 -509 l127
-221 -2 -2451 -3 -2451 -34 -23 c-53 -36 -107 -48 -221 -48 -114 0 -168 12
-221 48 l-34 23 -3 2451 -2 2451 127 221 c70 122 130 221 133 221 3 0 63 -99
133 -221z"/>
<path d="M6895 12186 c9 -58 60 -206 111 -325 58 -135 151 -310 277 -526 85
-145 110 -180 174 -239 144 -134 277 -376 444 -810 28 -72 55 -135 60 -141 21
-21 -143 387 -214 535 -100 206 -224 388 -306 447 -31 22 -66 73 -160 234
-191 326 -295 550 -367 784 -14 44 -22 63 -19 41z"/>
<path d="M8370 9723 c0 -20 117 -267 379 -803 147 -300 282 -580 301 -622 19
-42 36 -75 39 -73 7 7 -40 106 -310 657 -142 290 -291 598 -330 685 -73 162
-79 174 -79 156z"/>
<path d="M9830 7339 c0 -28 47 -154 93 -250 49 -102 227 -403 234 -396 2 3
-34 67 -80 143 -106 175 -179 320 -217 432 -16 48 -30 80 -30 71z"/>
<path d="M10008 6582 c181 -224 335 -458 607 -924 83 -142 153 -258 158 -258
4 0 -3 17 -16 38 -13 20 -81 136 -152 257 -168 290 -314 523 -415 665 -95 133
-251 330 -262 330 -4 0 32 -49 80 -108z"/>
<path d="M11123 4910 c22 -70 367 -843 374 -837 2 3 -24 65 -58 138 -34 74
-111 249 -171 389 -96 221 -160 359 -145 310z"/>
<path d="M8982 11931 c-55 -81 -171 -249 -258 -372 -379 -538 -358 -509 -350
-509 9 0 602 849 701 1003 9 15 15 27 12 27 -3 0 -50 -67 -105 -149z"/>
<path d="M7990 11915 c0 -212 3 -385 8 -385 4 0 7 173 7 385 0 212 -3 385 -7
385 -5 0 -8 -173 -8 -385z"/>
<path d="M7385 9598 c-3 -7 -21 -60 -41 -118 -117 -342 -311 -736 -584 -1185
-102 -167 -167 -268 -542 -845 -203 -313 -350 -544 -367 -581 -11 -23 -11 -23
4 -4 9 11 67 101 129 201 62 99 210 329 328 510 277 424 312 479 423 659 290
470 497 885 619 1243 25 72 43 132 40 132 -2 0 -7 -6 -9 -12z"/>
<path d="M5819 6288 c-32 -61 -231 -377 -514 -818 -513 -798 -702 -1131 -883
-1556 -64 -149 -145 -374 -138 -381 2 -2 12 20 21 49 39 121 153 394 231 558
189 390 357 675 848 1434 277 429 460 725 453 733 -3 3 -11 -6 -18 -19z"/>
<path d="M7979 8958 c-18 -94 -14 -412 5 -603 14 -129 15 -132 10 -40 -2 55
-9 165 -15 245 -10 148 -6 298 12 404 6 32 8 60 6 63 -3 2 -11 -29 -18 -69z"/>
<path d="M7961 7651 c0 -8 6 -80 14 -160 42 -423 51 -868 36 -1774 -6 -391
-13 -758 -15 -814 -2 -57 -1 -103 4 -103 7 0 13 304 26 1375 7 509 -3 878 -32
1220 -14 164 -30 291 -33 256z"/>
</g>
</svg>
